<?xml version="1.0" encoding="utf-8"?>
<!-- Generator: Adobe Illustrator 19.0.0, SVG Export Plug-In . SVG Version: 6.00 Build 0)  -->
<svg version="1.1" id="Capa_1" xmlns="http://www.w3.org/2000/svg" xmlns:xlink="http://www.w3.org/1999/xlink" x="0px" y="0px"
	 viewBox="121 -175 512 512" style="enable-background:new 121 -175 512 512;" xml:space="preserve">
<style type="text/css">
	.st0{fill:#2D2D2D;}
</style>
<g>
	<g>
		<path class="st0" d="M573-135h-24v-40h-40v40H245v-40h-40v40h-24c-33.1,0-60,26.9-60,60v352c0,33.1,26.9,60,60,60h392
			c33.1,0,60-26.9,60-60V-75C633-108.1,606.1-135,573-135z M593,277c0,11-9,20-20,20H181c-11,0-20-9-20-20V13h432V277z M593-27H161
			v-48c0-11,9-20,20-20h24v40h40v-40h264v40h40v-40h24c11,0,20,9,20,20V-27z"/>
	</g>
</g>
<g>
	<g>
		<rect x="197" y="55" class="st0" width="40" height="40"/>
	</g>
</g>
<g>
	<g>
		<rect x="277" y="55" class="st0" width="40" height="40"/>
	</g>
</g>
<g>
	<g>
		<rect x="357" y="55" class="st0" width="40" height="40"/>
	</g>
</g>
<g>
	<g>
		<rect x="437" y="55" class="st0" width="40" height="40"/>
	</g>
</g>
<g>
	<g>
		<rect x="517" y="55" class="st0" width="40" height="40"/>
	</g>
</g>
<g>
	<g>
		<rect x="197" y="135" class="st0" width="40" height="40"/>
	</g>
</g>
<g>
	<g>
		<rect x="277" y="135" class="st0" width="40" height="40"/>
	</g>
</g>
<g>
	<g>
		<rect x="357" y="135" class="st0" width="40" height="40"/>
	</g>
</g>
<g>
	<g>
		<rect x="437" y="135" class="st0" width="40" height="40"/>
	</g>
</g>
<g>
	<g>
		<rect x="197" y="215" class="st0" width="40" height="40"/>
	</g>
</g>
<g>
	<g>
		<rect x="277" y="215" class="st0" width="40" height="40"/>
	</g>
</g>
<g>
	<g>
		<rect x="357" y="215" class="st0" width="40" height="40"/>
	</g>
</g>
<g>
	<g>
		<rect x="437" y="215" class="st0" width="40" height="40"/>
	</g>
</g>
<g>
	<g>
		<rect x="517" y="135" class="st0" width="40" height="40"/>
	</g>
</g>
</svg>
