<?xml version="1.0" encoding="utf-8"?>
<!-- Generator: Adobe Illustrator 19.0.0, SVG Export Plug-In . SVG Version: 6.00 Build 0)  -->
<svg version="1.1" id="Capa_1" xmlns="http://www.w3.org/2000/svg" xmlns:xlink="http://www.w3.org/1999/xlink" x="0px" y="0px"
	 viewBox="121 -175 512 512" style="enable-background:new 121 -175 512 512;" xml:space="preserve">
<style type="text/css">
	.st0{fill:#2D2D2D;}
</style>
<g>
	<g>
		<circle class="st0" cx="537" cy="113" r="32"/>
	</g>
</g>
<g>
	<g>
		<circle class="st0" cx="217" cy="113" r="32"/>
	</g>
</g>
<g>
	<g>
		<path class="st0" d="M589.5,24l-58.5-137c-5.1-11.8-16.6-19.4-29.4-19.4H252.4c-12.8,0-24.3,7.6-29.4,19.4L164.5,24
			C138.9,35.9,121,61.7,121,91.7V177c0,17.6,14.4,32,32,32h10.7v53.3c0,17.6,14.4,32,32,32h42.7c17.6,0,32-14.4,32-32V209h213.3
			v53.3c0,17.6,14.4,32,32,32h42.7c17.6,0,32-14.4,32-32V209H601c17.6,0,32-14.4,32-32V91.7C633,61.7,615.1,35.9,589.5,24z
			 M217,166.3c-29.4,0-53.3-23.9-53.3-53.3c0-29.4,23.9-53.3,53.3-53.3s53.3,23.9,53.3,53.3C270.3,142.4,246.4,166.3,217,166.3z
			 M451.7,145H302.3c-5.9,0-10.7-4.8-10.7-10.7s4.8-10.7,10.7-10.7h149.3c5.9,0,10.7,4.8,10.7,10.7S457.6,145,451.7,145z
			 M451.7,102.3H302.3c-5.9,0-10.7-4.8-10.7-10.7S296.4,81,302.3,81h149.3c5.9,0,10.7,4.8,10.7,10.7S457.6,102.3,451.7,102.3z
			 M195.7,17c-1.8,0-3.5,0.4-5.2,0.5l52.1-122.1c1.7-3.9,5.5-6.5,9.8-6.5h249.2c4.3,0,8.1,2.5,9.8,6.4l52.1,122.1
			c-1.7-0.1-3.4-0.5-5.2-0.5H195.7z M537,166.3c-29.4,0-53.3-23.9-53.3-53.3c0-29.4,23.9-53.3,53.3-53.3c29.4,0,53.3,23.9,53.3,53.3
			C590.3,142.4,566.4,166.3,537,166.3z"/>
	</g>
</g>
</svg>
