<?xml version="1.0" encoding="utf-8"?>
<!-- Generator: Adobe Illustrator 19.0.0, SVG Export Plug-In . SVG Version: 6.00 Build 0)  -->
<svg version="1.1" id="Capa_1" xmlns="http://www.w3.org/2000/svg" xmlns:xlink="http://www.w3.org/1999/xlink" x="0px" y="0px"
	 viewBox="39 -93.3 348.3 348.3" style="enable-background:new 39 -93.3 348.3 348.3;" xml:space="preserve">
<style type="text/css">
	.st0{fill:#2B2B2B;}
</style>
<g>
	<path class="st0" d="M375.6-24.7L270,80.8l105.5,105.5c15.7,15.7,15.7,41.1,0,56.9c-7.8,7.8-18.1,11.8-28.4,11.8
		c-10.3,0-20.6-3.9-28.4-11.8L213.2,137.7L107.6,243.2c-7.8,7.8-18.1,11.8-28.4,11.8c-10.3,0-20.6-3.9-28.4-11.8
		c-15.7-15.7-15.7-41.1,0-56.9L156.3,80.8L50.8-24.7c-15.7-15.7-15.7-41.1,0-56.8c15.7-15.7,41.1-15.7,56.8,0L213.2,24L318.7-81.6
		c15.7-15.7,41.1-15.7,56.8,0C391.3-65.9,391.3-40.4,375.6-24.7z"/>
</g>
</svg>
