<?xml version="1.0" encoding="utf-8"?>
<!-- Generator: Adobe Illustrator 19.0.0, SVG Export Plug-In . SVG Version: 6.00 Build 0)  -->
<svg version="1.1" id="Layer_1" xmlns="http://www.w3.org/2000/svg" xmlns:xlink="http://www.w3.org/1999/xlink" x="0px" y="0px"
	 viewBox="121 -175 512 512" style="enable-background:new 121 -175 512 512;" xml:space="preserve">
<style type="text/css">
	.st0{fill:#2D2D2D;}
</style>
<path class="st0" d="M556.9,85.8c41.9,0,76.1-34.1,76.1-76.1s-34.1-76.1-76.1-76.1h-16.4v-9.4c0-25.7-39.7-35.1-65.9-40.1
	c-72.5-13.9-188.8-13.9-261.3,0c-26.3,5-65.9,14.4-65.9,40.1V34.7c0,54,21.9,102.9,57.2,138.4c-31.2,6.3-83.6,19.6-83.6,51.4
	c0,56.5,169.6,63.7,226,63.7c56.4,0,226-7.2,226-63.7c0-32.8-56.2-46.2-88.7-52.4c23.3-23.8,40.6-53.4,49.5-86.4H556.9z M556.9-34.3
	c24.3,0,44,19.7,44,44s-19.7,44-44,44h-16.4c0-9,0-75.7,0-88H556.9z M500.9-75.7c-61.9,24.8-253.3,24.3-313.9,0
	C247.6-99.9,439-100.5,500.9-75.7z M539.8,224.6c-4.8,4.2-20.3,12.6-56.7,20c-116.2,23.4-296.2,8.7-328.8-20
	c14.9-13.1,62.5-21.5,83.5-24.5c65,41.9,148.6,41.7,213.4-0.7C472.2,202.2,523.9,210.6,539.8,224.6z M344,199.2
	c-90.7,0-164.5-73.8-164.5-164.5v-79c71.7,25.5,257.6,25.4,329,0v79C508.5,125.4,434.7,199.2,344,199.2z"/>
</svg>
